PathFileType	4	(X/Y/Z)	C:\Users\WrightLab\Desktop\Jo\P5V33.trc
DataRate	CameraRate	NumFrames	NumMarkers	Units	OrigDataRate	OrigDataStartFrame	OrigNumFrames
100.00	100.00	      34	19	mm	100.00	134	      1066
Frame#	Time	Headset_Front			Headset_Back			Headset_Left			Headset_Right			Left_Shoulder			Right_Shoulder			Sternum			C7			Left Elbow			Right Elbow			Left Wrist			Right Wrist			Left ASIS			Right ASIS			S2			Left Knee			Right Knee			Left Ankle			Right Ankle			
		X1	Y1	Z1	X2	Y2	Z2	X3	Y3	Z3	X4	Y4	Z4	X5	Y5	Z5	X6	Y6	Z6	X7	Y7	Z7	X8	Y8	Z8	X9	Y9	Z9	X10	Y10	Z10	X11	Y11	Z11	X12	Y12	Z12	X13	Y13	Z13	X14	Y14	Z14	X15	Y15	Z15	X16	Y16	Z16	X17	Y17	Z17	X18	Y18	Z18	X19	Y19	Z19	

134	1.330													-341.37958	1568.47998	-1222.70825													-520.36700	1184.02283	-1328.77820				-439.18616	1177.45374	-1112.81641	-81.60583	921.61932	-1254.00757	-348.54059	937.91028	-1236.79211							-402.56055	465.17365	-1281.27856							
135	1.340													-340.15155	1568.52698	-1222.54224													-519.94562	1184.01587	-1328.25305				-438.53186	1177.84399	-1112.05005	-81.05755	921.96277	-1254.61072	-348.33008	937.80988	-1236.74377							-401.87839	465.03674	-1281.62573							
136	1.350													-338.73502	1568.64648	-1221.66797													-518.98065	1184.49768	-1329.61633				-438.01944	1177.97107	-1111.53052	-78.77903	922.61072	-1253.53516	-346.55902	937.48114	-1235.91650							-401.99350	464.84180	-1281.83154							
137	1.360													-337.22729	1568.30530	-1220.20850													-518.59039	1184.52625	-1329.34229				-436.62985	1176.88953	-1111.41541	-78.44998	922.66034	-1253.28723	-345.29651	937.10175	-1235.75879							-401.34247	464.04300	-1281.63232							
138	1.370													-335.78464	1568.42212	-1219.68347													-517.79395	1184.26953	-1328.70398				-436.09695	1177.02502	-1110.95776	-78.16798	922.69965	-1253.07471	-343.81717	937.04987	-1235.60583							-400.74387	463.80191	-1281.81897							
139	1.380													-334.30792	1568.55896	-1219.35791													-516.94275	1183.96411	-1327.92358				-435.85287	1177.20679	-1110.27637	-77.11884	922.47339	-1252.49426	-342.52155	937.09802	-1235.33350							-398.71796	463.98511	-1281.52979							
140	1.390													-332.72772	1568.37085	-1218.25989													-515.90820	1183.85950	-1327.70544				-435.49652	1177.01184	-1109.70044	-75.55227	922.45563	-1251.65747	-341.68073	937.31293	-1234.79602							-397.82825	464.36862	-1280.89136							
141	1.400													-331.14081	1568.05493	-1217.11963													-514.95721	1183.72839	-1326.68713				-434.45071	1176.75305	-1109.32947	-74.19168	922.80359	-1253.63623	-340.05801	936.90009	-1235.11853							-397.31049	464.46927	-1280.78235							
142	1.410													-329.52225	1568.07275	-1216.21729													-513.57410	1183.53149	-1326.08215				-432.23599	1175.68396	-1109.24036	-72.23908	923.01154	-1252.52026	-338.88007	936.85455	-1235.02686							-395.80130	463.96048	-1279.93079							
143	1.420													-328.08609	1567.58057	-1215.56775													-512.58209	1183.42957	-1325.19592				-430.80908	1174.82324	-1108.50073	-71.69669	922.72961	-1254.83459	-336.61133	936.71985	-1234.64746							-393.40518	464.03336	-1279.42529							
144	1.430													-326.43457	1567.34021	-1214.23657													-510.84409	1183.52075	-1326.41223				-430.27658	1174.85803	-1107.59717	-69.71221	923.13599	-1253.82251	-335.23679	936.80316	-1234.21863							-392.60114	463.86566	-1279.15613							
145	1.440													-324.75180	1567.26538	-1213.26538													-509.77295	1183.08667	-1325.77600				-429.99963	1174.37390	-1106.90540	-68.24563	923.27106	-1252.97900	-333.43915	936.16498	-1234.30823							-391.19901	464.06247	-1278.60205							
146	1.450													-323.21613	1566.95227	-1212.35974													-508.45660	1182.80176	-1325.58459				-429.33258	1173.84912	-1106.83398	-66.26541	923.07489	-1251.92297	-331.92523	936.10461	-1233.31042							-389.48294	463.31363	-1277.15344							
147	1.460													-321.51663	1566.67334	-1211.02869													-507.05444	1182.43433	-1325.18433				-428.22784	1173.42273	-1106.90369	-65.28288	923.26721	-1251.17944	-330.70401	935.83594	-1232.79675							-386.66388	463.01184	-1276.23267							
148	1.470													-319.99414	1566.34583	-1210.66394													-505.60065	1181.86084	-1323.99402				-428.19781	1173.15186	-1106.01672	-62.68097	923.46844	-1250.65027	-329.01862	936.38379	-1231.80542							-384.72501	463.10263	-1276.40308							
149	1.480													-318.37683	1565.96875	-1209.51526													-503.59610	1181.71533	-1324.86853				-426.50949	1172.36035	-1106.04321	-60.71617	922.68671	-1253.18311	-326.75491	935.73169	-1231.50427							-382.68869	464.13556	-1275.46448							
150	1.490													-316.85760	1565.42578	-1208.20276													-502.22742	1180.77405	-1323.60925				-426.03659	1172.09570	-1105.38171	-59.57502	922.67773	-1252.47473	-325.07703	935.43787	-1230.62122							-381.15805	463.45538	-1275.22913							
151	1.500													-315.25830	1565.15479	-1207.23328													-501.22052	1180.45850	-1323.38696				-424.61380	1170.47400	-1105.07336	-56.99950	921.53107	-1252.55042	-323.62329	935.62396	-1229.70105							-378.61099	464.00687	-1273.37061							
152	1.510													-313.79254	1564.73267	-1206.27356													-499.43393	1179.33862	-1322.72009				-424.37384	1169.27344	-1104.53931	-57.87830	920.48724	-1252.57568	-322.56137	935.52466	-1228.85205							-375.91888	463.25784	-1271.75427							
153	1.520													-312.23093	1564.48071	-1205.34937													-498.17191	1178.99609	-1322.18298				-423.91107	1168.74133	-1103.87292	-53.49476	920.33929	-1254.86548	-319.07144	934.73962	-1227.93286							-374.11826	464.11954	-1270.30200							
154	1.530													-310.74847	1564.11902	-1204.14294													-496.19095	1178.85913	-1322.93115				-423.23044	1167.07581	-1103.64331	-50.85626	921.05511	-1253.49438	-317.50940	934.69781	-1227.13525							-370.70920	464.03464	-1267.09912							
155	1.540													-309.25146	1563.65991	-1202.95117													-494.46783	1177.97681	-1321.91699				-422.54553	1166.44458	-1103.55554	-49.52781	920.57159	-1252.68152	-316.68866	934.81793	-1227.08740							-367.23691	463.81525	-1264.86914							
156	1.550													-307.75098	1563.01196	-1201.24915													-493.02460	1177.61743	-1322.77380				-421.84674	1165.92505	-1102.75818	-47.64605	919.76813	-1254.16382	-314.66089	934.23621	-1226.70142							-364.81610	464.00568	-1262.44128							
157	1.560													-306.31229	1562.67920	-1200.23438													-492.11130	1176.90955	-1322.57495				-421.43265	1164.86292	-1102.73022	-44.98653	918.40033	-1263.00439	-312.05991	933.19458	-1226.77686							-360.77155	464.18503	-1259.93457							
158	1.570													-304.86322	1561.76074	-1198.58313													-490.43893	1176.01428	-1322.81116				-420.63074	1163.66626	-1102.35510	-43.07110	918.42944	-1263.89758	-310.53885	932.20502	-1226.52856							-358.88171	464.27957	-1257.22595							
159	1.580													-303.72189	1561.14160	-1197.92883													-489.45547	1175.00781	-1321.44727				-419.71085	1162.33936	-1101.71680	-41.27974	917.03717	-1265.15381	-309.27466	931.11383	-1226.42065							-353.52597	462.99960	-1252.91077							
160	1.590													-302.24210	1560.54504	-1196.07214													-488.00653	1174.38928	-1321.44263				-419.18301	1160.30432	-1101.28650	-39.94538	915.35492	-1264.58960	-307.73715	929.91876	-1226.31226							-351.31329	463.95239	-1248.74731				-383.25385	84.42834	-1407.22437	
161	1.600													-301.20203	1559.82593	-1195.28552													-486.76080	1173.41113	-1321.18384				-419.04742	1159.44629	-1100.53235	-38.24623	915.60175	-1261.80884	-305.82324	928.34595	-1226.28687							-346.23019	463.82343	-1244.36658				-382.16470	87.98811	-1404.59485	
162	1.610													-299.93634	1559.23438	-1193.07007													-486.15082	1172.24426	-1319.46045				-418.08881	1155.73413	-1099.30554	-35.41970	913.70660	-1262.21045	-305.24683	927.45782	-1226.79504							-343.34824	467.32492	-1236.22534				-380.99213	90.77169	-1399.37061	
163	1.620													-298.95041	1558.96118	-1192.16626													-485.55746	1172.02368	-1319.13306				-417.80862	1155.24768	-1098.25513	-33.01573	911.80139	-1266.21240	-303.00024	926.25446	-1226.74866							-341.60663	470.80200	-1226.66296				-380.07568	95.37099	-1397.84241	
164	1.630													-297.94958	1558.39185	-1189.80945													-484.41589	1171.78625	-1318.80444				-418.59402	1155.22058	-1096.63806	-32.32981	911.18274	-1265.47974	-300.97504	925.16180	-1226.75452							-339.37735	473.46594	-1216.43994				-379.02933	99.24467	-1395.49561	
165	1.640													-297.08557	1558.19958	-1188.31116													-483.58179	1171.34033	-1316.51624				-418.47607	1153.60059	-1094.59937	-30.22701	909.75598	-1266.32983	-300.76175	924.98932	-1226.69788							-336.98627	474.46423	-1206.01550				-376.87234	104.05582	-1390.33508	
166	1.650													-296.36807	1558.02600	-1187.29260													-482.44324	1171.22302	-1313.85071				-418.29019	1152.14941	-1091.61499	-29.30795	910.99945	-1260.82764	-299.69598	924.72577	-1226.47522							-334.74954	474.46115	-1194.06055				-374.00626	110.15085	-1387.24304	
167	1.660													-295.60031	1557.77710	-1185.14807													-481.52759	1171.61462	-1311.44849				-418.19531	1151.90308	-1089.42456	-28.69030	911.97137	-1257.14050	-299.34491	925.01654	-1226.03699							-332.71384	476.24127	-1183.98157				-372.93079	112.89333	-1384.52283	
